# xmcd
#
# Track frame offsets:
#	150
#	14140
#	30115
#	44636
#	59201
#	73637
#	88927
#	102787
#	117957
#	128934
#	141605
#	156510
#	168050
#	181887
#	194002
#	206924
#	218964
#	232104
#	248668
#	265307
#	280491
#	291640
#	306803
#	321106
#	333863
#
# Disc length: 4653 seconds
#
# Revision: 0
# Processed by: cddbd v1.5.2PL0 Copyright (c) Steve Scherf et al.
# Submitted via: EasyCDDAExtractor 15.3.0.1
#
DISCID=98122b19
DTITLE=Frank Hutchison and Kelly Harrell - Frank Hutchison - Worried Blues CD B 
DTITLE=(Frank Hutchison's and Kelly Harrell's complete commercial output)
DYEAR=1900
DGENRE=Blues Bluegrass Country
TTITLE0=Frank Hutchison - Cumberland Gap
TTITLE1=Frank Hutchison - The Deal
TTITLE2=Frank Hutchison - Railroad Bill
TTITLE3=Frank Hutchison - Johnny and Jane 1
TTITLE4=Frank Hutchison - Johnny and Jane 2
TTITLE5=Frank Hutchison - Cannonball Blues
TTITLE6=Frank Hutchison - K.C. Blues
TTITLE7=Kelly Harrell - New River Train
TTITLE8=Kelly Harrell - Rovin' Gambler
TTITLE9=Kelly Harrell - I wish I was A Single Girl Again
TTITLE10=Kelly Harrell - Butcher's Boy
TTITLE11=Kelly Harrell - I Was Born About 10,000 Years Ago
TTITLE12=Kelly Harrell - Wild Bill Jones
TTITLE13=Kelly Harrell - Peg and Awl
TTITLE14=Kelly Harrell - I Was Born In Pennsylvania
TTITLE15=Kelly Harrell - I'm Going Back To North Carolina
TTITLE16=Kelly Harrell - Be At Home Soon Tonight My Dear Boy
TTITLE17=Kelly Harrell - The Wreck On The Southern Old 97
TTITLE18=Kelly Harrell - Blue Eyed Ella
TTITLE19=Kelly Harrell - New River Train
TTITLE20=Kelly Harrell - Rovin' Gambler
TTITLE21=Kelly Harrell - I Wish I Was A Single Girl Again
TTITLE22=Kelly Harrell - Butcher's Boy
TTITLE23=Kelly Harrell - Oh Molly Dear Go Ask Your Mother
TTITLE24=Kelly Harrell - Broken Engagement
EXTD=
EXTT0=
EXTT1=
EXTT2=
EXTT3=
EXTT4=
EXTT5=
EXTT6=
EXTT7=
EXTT8=
EXTT9=
EXTT10=
EXTT11=
EXTT12=
EXTT13=
EXTT14=
EXTT15=
EXTT16=
EXTT17=
EXTT18=
EXTT19=
EXTT20=
EXTT21=
EXTT22=
EXTT23=
EXTT24=
PLAYORDER=
